<?xml version="1.0" encoding="utf-8"?><svg viewBox="0 0 24 24" xmlns="http://www.w3.org/2000/svg" xmlns:xlink="http://www.w3.org/1999/xlink"><style>:root>svg{display:none}:root>svg:target{display:block}</style><svg viewBox="0 0 24 24" id="Caret" xmlns="http://www.w3.org/2000/svg"><path d="M0 0h24v24H0z"/><path d="M18 9l-6 7.5L6 9h12z"/></svg><svg viewBox="0 0 24 24" id="Checkmark" xmlns="http://www.w3.org/2000/svg"><path d="M0 0h24v24H0z"/><path d="M10.5 16.06l-3.75-3.75 1.06-1.06 2.69 2.69 5.689-5.69 1.061 1.061-6.75 6.75z"/><path d="M12 1.5a10.5 10.5 0 100 21 10.5 10.5 0 000-21zM12 21a9 9 0 110-18 9 9 0 010 18z"/></svg><svg viewBox="0 0 24 24" id="Delivery" xmlns="http://www.w3.org/2000/svg"><path d="M0 0h24v24H0z"/><path d="M12 12H3v1.5h9V12zM9 8.25H1.5v1.5H9v-1.5z"/><path d="M22.44 12.455l-2.25-5.25a.749.749 0 00-.69-.455h-2.25v-1.5a.75.75 0 00-.75-.75h-12V6h11.25v9.417a2.992 2.992 0 00-1.393 1.833H9.643a3 3 0 100 1.5h4.714a2.985 2.985 0 005.786 0h1.607a.75.75 0 00.75-.75v-5.25a.747.747 0 00-.06-.295zM6.75 19.5a1.5 1.5 0 110-3 1.5 1.5 0 010 3zm10.5-11.25h1.756L20.613 12H17.25V8.25zm0 11.25a1.5 1.5 0 110-3 1.5 1.5 0 010 3zM21 17.25h-.857A2.996 2.996 0 0017.25 15v-1.5H21v3.75z"/></svg><svg viewBox="0 0 24 24" id="avatar" xmlns="http://www.w3.org/2000/svg"><path d="M0 0h24v24H0z"/><path d="M12 6a3.75 3.75 0 100 7.5A3.75 3.75 0 0012 6zm0 6a2.25 2.25 0 110-4.5 2.25 2.25 0 010 4.5z"/><path d="M12 1.5A10.5 10.5 0 1022.5 12 10.512 10.512 0 0012 1.5zM7.5 19.782V18.75a2.253 2.253 0 012.25-2.25h4.5a2.253 2.253 0 012.25 2.25v1.032a8.924 8.924 0 01-9 0zm10.494-1.088A3.751 3.751 0 0014.25 15h-4.5a3.751 3.751 0 00-3.744 3.694 9 9 0 1111.988 0z"/></svg><svg viewBox="0 0 24 24" id="cart" xmlns="http://www.w3.org/2000/svg"><path d="M0 0h24v24H0z"/><path d="M7.5 22.5a1.5 1.5 0 100-3 1.5 1.5 0 000 3zm10.5 0a1.5 1.5 0 100-3 1.5 1.5 0 000 3zm3-17.25H4.365L3.75 2.1A.75.75 0 003 1.5H0V3h2.385L5.25 17.4A.75.75 0 006 18h13.5v-1.5H6.615L6 13.5h13.5a.75.75 0 00.75-.585l1.5-6.75A.751.751 0 0021 5.25zM18.9 12H5.715l-1.05-5.25h15.398L18.9 12z"/></svg><svg viewBox="0 0 8 6" id="check" xmlns="http://www.w3.org/2000/svg"><path d="M1 3.074L2.95 5 7 1"/></svg><svg viewBox="0 0 24 24" id="facebook" xmlns="http://www.w3.org/2000/svg"><path d="M0 0h24v24H0z"/><path d="M20.003 3H3.997A1.005 1.005 0 003 3.998v16.005a1.005 1.005 0 00.998.997h8.617v-6.96h-2.34v-2.722h2.34V9.315c0-2.325 1.418-3.592 3.502-3.592.698 0 1.395 0 2.093.104V8.25h-1.433c-1.132 0-1.35.54-1.35 1.328v1.732h2.7l-.352 2.723h-2.347V21h4.575a1.006 1.006 0 00.997-.997V3.997A1.005 1.005 0 0020.003 3z"/></svg><svg viewBox="0 0 24 24" id="instagram" xmlns="http://www.w3.org/2000/svg"><path d="M0 0h24v24H0z"/><path d="M16.804 8.276a1.08 1.08 0 100-2.16 1.08 1.08 0 000 2.16zM12 7.378a4.622 4.622 0 100 9.244 4.622 4.622 0 000-9.244zM12 15a3 3 0 110-5.999A3 3 0 0112 15z"/><path d="M12 4.622c2.403 0 2.688.009 3.637.052.57.007 1.136.112 1.671.31a2.982 2.982 0 011.708 1.708c.198.535.303 1.1.31 1.671.043.95.052 1.234.052 3.637s-.009 2.688-.052 3.637a4.982 4.982 0 01-.31 1.671 2.98 2.98 0 01-1.708 1.708 4.98 4.98 0 01-1.671.31c-.95.043-1.234.052-3.637.052s-2.688-.009-3.637-.052a4.981 4.981 0 01-1.671-.31 2.981 2.981 0 01-1.708-1.708 4.982 4.982 0 01-.31-1.671c-.043-.95-.052-1.234-.052-3.637s.009-2.688.052-3.637c.007-.57.112-1.136.31-1.67a2.981 2.981 0 011.708-1.709 4.981 4.981 0 011.671-.31c.95-.043 1.234-.052 3.637-.052zM12 3c-2.444 0-2.75.01-3.71.054a6.605 6.605 0 00-2.185.419 4.602 4.602 0 00-2.633 2.632 6.605 6.605 0 00-.418 2.185C3.01 9.25 3 9.556 3 12s.01 2.75.054 3.71c.015.747.157 1.486.419 2.185a4.602 4.602 0 002.632 2.633c.7.262 1.438.403 2.185.418.96.044 1.266.054 3.71.054s2.75-.01 3.71-.054a6.608 6.608 0 002.185-.419 4.602 4.602 0 002.633-2.632c.262-.7.403-1.438.418-2.185.044-.96.054-1.266.054-3.71s-.01-2.75-.054-3.71a6.606 6.606 0 00-.419-2.185 4.603 4.603 0 00-2.632-2.632 6.605 6.605 0 00-2.185-.418C14.75 3.01 14.444 3 12 3z"/></svg><svg viewBox="0 0 24 24" id="linkedin" xmlns="http://www.w3.org/2000/svg"><path d="M0 0h24v24H0z"/><path d="M19.65 3H4.35C3.6 3 3 3.6 3 4.275V19.65c0 .675.6 1.275 1.35 1.275h15.3c.75 0 1.35-.6 1.35-1.275V4.275C21 3.6 20.4 3 19.65 3zM8.325 18.3H5.7V9.75h2.625v8.55zM7.05 8.55a1.584 1.584 0 01-1.575-1.575c0-.9.675-1.575 1.575-1.575.825 0 1.575.675 1.575 1.575 0 .9-.75 1.575-1.575 1.575zm11.325 9.675H15.75v-4.2c0-.975 0-2.325-1.425-2.325s-1.575 1.125-1.575 2.175v4.275h-2.625v-8.4H12.6v1.125h.075c.375-.675 1.275-1.425 2.55-1.425 2.7 0 3.225 1.8 3.225 4.125v4.65h-.075z"/></svg><svg viewBox="0 0 24 24" id="pinterest" xmlns="http://www.w3.org/2000/svg"><path d="M0 0h24v24H0z"/><path d="M12 1.5a10.5 10.5 0 00-3.825 20.25 9.93 9.93 0 010-3l1.238-5.25a3.788 3.788 0 01-.285-1.5c0-1.455.847-2.55 1.897-2.55a1.32 1.32 0 011.327 1.5c0 .9-.57 2.25-.87 3.495a1.5 1.5 0 001.56 1.898c1.86 0 3.3-1.973 3.3-4.808a4.147 4.147 0 00-4.387-4.275 4.545 4.545 0 00-4.74 4.56 4.065 4.065 0 00.75 2.393.33.33 0 01.075.3c-.082.33-.262 1.05-.292 1.192-.03.143-.158.232-.353.143-1.312-.616-2.13-2.528-2.13-4.073 0-3.308 2.408-6.353 6.938-6.353 3.637 0 6.472 2.596 6.472 6.068 0 3.615-2.25 6.525-5.453 6.525a2.821 2.821 0 01-2.407-1.2l-.652 2.497a11.66 11.66 0 01-1.305 2.753c1.02.301 2.079.448 3.142.435a10.5 10.5 0 100-21z"/></svg><svg viewBox="0 0 24 24" id="purchase" xmlns="http://www.w3.org/2000/svg"><path d="M0 0h24v24H0z"/><path d="M21 4.5H3A1.5 1.5 0 001.5 6v12A1.5 1.5 0 003 19.5h18a1.5 1.5 0 001.5-1.5V6A1.5 1.5 0 0021 4.5zM21 6v2.25H3V6h18zM3 18V9.75h18V18H3z"/><path d="M12 15H4.5v1.5H12V15z"/></svg><svg viewBox="0 0 24 24" id="search" xmlns="http://www.w3.org/2000/svg"><path d="M0 0h24v24H0z"/><path d="M21.75 20.69l-5.664-5.665a8.264 8.264 0 10-1.06 1.06l5.663 5.665 1.06-1.06zM3 9.75a6.75 6.75 0 116.75 6.75A6.758 6.758 0 013 9.75z"/></svg><svg viewBox="0 0 24 24" id="skype" xmlns="http://www.w3.org/2000/svg"><path d="M0 0h24v24H0z"/><path d="M20.932 13.41A9.045 9.045 0 0010.59 3.067a5.468 5.468 0 00-7.5 7.5A8.832 8.832 0 002.956 12a9.045 9.045 0 0010.455 8.933 5.468 5.468 0 007.5-7.5l.022-.023zm-4.635 2.7a3.75 3.75 0 01-1.68 1.298 6.751 6.751 0 01-2.61.465A6.309 6.309 0 019 17.25a3.9 3.9 0 01-1.365-1.222 2.693 2.693 0 01-.525-1.5 1.02 1.02 0 01.322-.75 1.17 1.17 0 01.818-.278c.249-.005.491.08.682.24.21.196.371.437.473.705.13.313.296.61.495.885.198.254.456.455.75.585.4.172.833.251 1.267.233a3 3 0 001.755-.465 1.35 1.35 0 00.668-1.148 1.155 1.155 0 00-.353-.877 2.317 2.317 0 00-.937-.525c-.39-.128-.908-.255-1.56-.398-.75-.174-1.48-.42-2.183-.735a3.585 3.585 0 01-1.417-1.05 2.625 2.625 0 01-.525-1.657 2.737 2.737 0 01.555-1.68c.418-.52.974-.91 1.605-1.125A7.132 7.132 0 0112 6.128a6.472 6.472 0 011.942.262c.495.147.96.38 1.373.69.325.244.596.553.795.908.162.286.25.608.255.937a1.05 1.05 0 01-.323.75 1.073 1.073 0 01-.802.345.938.938 0 01-.668-.21 2.52 2.52 0 01-.487-.652 2.844 2.844 0 00-.788-.983 2.347 2.347 0 00-1.462-.345 2.73 2.73 0 00-1.5.375 1.08 1.08 0 00-.57.9.862.862 0 00.187.563c.15.173.334.313.54.412.22.114.452.204.69.27.24.068.63.165 1.178.293.69.15 1.305.315 1.867.495a5.68 5.68 0 011.425.66c.386.244.704.582.923.982a3 3 0 01.3 1.47 3.18 3.18 0 01-.578 1.86z"/></svg><svg viewBox="0 0 24 24" id="sprout" xmlns="http://www.w3.org/2000/svg"><path d="M0 0h24v24H0z"/><path d="M18.75 1.5a8.257 8.257 0 00-7.684 5.268A5.246 5.246 0 006.75 4.5H4.5v2.25A5.256 5.256 0 009.75 12h.75v6.787a7.442 7.442 0 00-4.553 2.16l1.06 1.06a6.001 6.001 0 019.232.91l1.246-.834A7.486 7.486 0 0012 18.797V12h.75A8.26 8.26 0 0021 3.75V1.5h-2.25zm-9 9A3.754 3.754 0 016 6.75V6h.75a3.754 3.754 0 013.75 3.75v.75h-.75zm9.75-6.75a6.758 6.758 0 01-6.75 6.75H12v-.75A6.758 6.758 0 0118.75 3h.75v.75z"/></svg><svg viewBox="0 0 24 24" id="twitter" xmlns="http://www.w3.org/2000/svg"><path d="M0 0h24v24H0z"/><path d="M8.94 18.705a9.57 9.57 0 009.63-9.63v-.443a7.05 7.05 0 001.68-1.747c-.618.27-1.273.45-1.942.532a3.42 3.42 0 001.5-1.875 6.668 6.668 0 01-2.145.825 3.39 3.39 0 00-5.776 3.083 9.592 9.592 0 01-6.975-3.533 3.382 3.382 0 001.05 4.5 3.353 3.353 0 01-1.5-.42v.038a3.398 3.398 0 002.663 3.338 3.397 3.397 0 01-1.5.06A3.383 3.383 0 008.76 15.75a6.788 6.788 0 01-4.207 1.5 7.333 7.333 0 01-.803-.067 9.578 9.578 0 005.19 1.5"/></svg></svg>